<?xml version="1.0" encoding="us-ascii" standalone="no"?><svg xmlns="http://www.w3.org/2000/svg" xmlns:xlink="http://www.w3.org/1999/xlink" contentStyleType="text/css" height="656px" preserveAspectRatio="none" style="width:542px;height:656px;background:#FFFFFF;" version="1.1" viewBox="0 0 542 656" width="542px" zoomAndPan="magnify"><defs/><g><text fill="#000000" font-family="sans-serif" font-size="14" font-weight="bold" lengthAdjust="spacing" textLength="319" x="104.5" y="22.9951">Screen-Lighteer - Application State Diagram</text><path d="M19.5,251.2969 L362,251.2969 A12.5,12.5 0 0 1 374.5,263.7969 L374.5,277.5938 L7,277.5938 L7,263.7969 A12.5,12.5 0 0 1 19.5,251.2969 " fill="#F1F1F1" style="stroke:#F1F1F1;stroke-width:1.0;"/><rect fill="none" height="173.0769" rx="12.5" ry="12.5" style="stroke:#181818;stroke-width:0.5;" width="367.5" x="7" y="251.2969"/><line style="stroke:#181818;stroke-width:0.5;" x1="7" x2="374.5" y1="277.5938" y2="277.5938"/><text fill="#000000" font-family="sans-serif" font-size="14" lengthAdjust="spacing" textLength="58" x="161.75" y="269.292">Running</text><g id="Running.Moving"><rect fill="#F1F1F1" height="50" rx="12.5" ry="12.5" style="stroke:#181818;stroke-width:0.5;" width="120" x="19" y="361.5938"/><line style="stroke:#181818;stroke-width:0.5;" x1="19" x2="139" y1="387.8906" y2="387.8906"/><text fill="#000000" font-family="sans-serif" font-size="14" lengthAdjust="spacing" textLength="100" x="29" y="379.5889">Mouse Moving</text></g><g id="Running.Static"><rect fill="#F1F1F1" height="50" rx="12.5" ry="12.5" style="stroke:#181818;stroke-width:0.5;" width="109" x="256.5" y="361.5938"/><line style="stroke:#181818;stroke-width:0.5;" x1="256.5" x2="365.5" y1="387.8906" y2="387.8906"/><text fill="#000000" font-family="sans-serif" font-size="14" lengthAdjust="spacing" textLength="89" x="266.5" y="379.5889">Mouse Static</text></g><ellipse cx="79" cy="298.5938" fill="#222222" rx="10" ry="10" style="stroke:#222222;stroke-width:1.0;"/><!--link *start*Running to Moving--><g id="link_*start*Running_Moving"><path d="M79,308.7938 C79,321.2738 79,338.0138 79,355.5238 " fill="none" id="*start*Running-to-Moving" style="stroke:#181818;stroke-width:1.0;"/><polygon fill="#181818" points="79,361.5238,83,352.5238,79,356.5238,75,352.5238,79,361.5238" style="stroke:#181818;stroke-width:1.0;"/><text fill="#000000" font-family="sans-serif" font-size="13" lengthAdjust="spacing" textLength="70" x="80" y="339.6606">On Startup</text></g><!--link Moving to Static--><g id="link_Moving_Static"><path d="M139.05,386.5938 C175.3,386.5938 215.13,386.5938 250.36,386.5938 " fill="none" id="Moving-to-Static" style="stroke:#181818;stroke-width:1.0;"/><polygon fill="#181818" points="256.36,386.5938,247.36,382.5938,251.36,386.5938,247.36,390.5938,256.36,386.5938" style="stroke:#181818;stroke-width:1.0;"/><text fill="#000000" font-family="sans-serif" font-size="13" lengthAdjust="spacing" textLength="98" x="148.75" y="379.6606">'M' key pressed</text></g><!--link Static to Moving--><g id="link_Static_Moving"><path d="M256.39,404.9838 C253.49,405.6138 250.6,406.1538 247.75,406.5938 C203.83,413.3738 191.75,412.8638 147.75,406.5938 C144.92,406.1938 147.9304,406.8351 145.0404,406.2751 " fill="none" id="Static-to-Moving" style="stroke:#181818;stroke-width:1.0;"/><polygon fill="#181818" points="139.15,405.1338,147.2247,410.7728,144.0587,406.0849,148.7466,402.9189,139.15,405.1338" style="stroke:#181818;stroke-width:1.0;"/><text fill="#000000" font-family="sans-serif" font-size="13" lengthAdjust="spacing" textLength="98" x="148.75" y="402.6606">'M' key pressed</text></g><ellipse cx="191" cy="53.2969" fill="#222222" rx="10" ry="10" style="stroke:#222222;stroke-width:1.0;"/><g id="Initializing"><rect fill="#F1F1F1" height="50" rx="12.5" ry="12.5" style="stroke:#181818;stroke-width:0.5;" width="86" x="148" y="124.2969"/><line style="stroke:#181818;stroke-width:0.5;" x1="148" x2="234" y1="150.5938" y2="150.5938"/><text fill="#000000" font-family="sans-serif" font-size="14" lengthAdjust="spacing" textLength="66" x="158" y="142.292">Initializing</text></g><g id="Terminating"><rect fill="#F1F1F1" height="50" rx="12.5" ry="12.5" style="stroke:#181818;stroke-width:0.5;" width="102" x="140" y="501.2969"/><line style="stroke:#181818;stroke-width:0.5;" x1="140" x2="242" y1="527.5938" y2="527.5938"/><text fill="#000000" font-family="sans-serif" font-size="14" lengthAdjust="spacing" textLength="82" x="150" y="519.292">Terminating</text></g><ellipse cx="191" cy="639.2969" fill="none" rx="11" ry="11" style="stroke:#222222;stroke-width:1.0;"/><ellipse cx="191" cy="639.2969" fill="#222222" rx="6" ry="6" style="stroke:#222222;stroke-width:1.0;"/><!--link *start* to Initializing--><g id="link_*start*_Initializing"><path d="M191,63.3069 C191,77.1869 191,98.2669 191,118.1369 " fill="none" id="*start*-to-Initializing" style="stroke:#181818;stroke-width:1.0;"/><polygon fill="#181818" points="191,124.1369,195,115.1369,191,119.1369,187,115.1369,191,124.1369" style="stroke:#181818;stroke-width:1.0;"/></g><!--link Initializing to Running--><g id="link_Initializing_Running"><path d="M191,174.6769 C191,194.3269 191,217.1969 191,245.1369 " fill="none" id="Initializing-to-Running" style="stroke:#181818;stroke-width:1.0;"/><polygon fill="#181818" points="191,251.1369,195,242.1369,191,246.1369,187,242.1369,191,251.1369" style="stroke:#181818;stroke-width:1.0;"/><text fill="#000000" font-family="sans-serif" font-size="13" lengthAdjust="spacing" textLength="102" x="192" y="217.3638">Window Created</text></g><!--link Running to Terminating--><g id="link_Running_Terminating"><path d="M70.3,424.6369 C62.15,439.5569 60.72,455.3969 71,471.2969 C86.26,494.8969 108.8109,506.5599 134.0909,514.1099 " fill="none" id="Running-to-Terminating" style="stroke:#181818;stroke-width:1.0;"/><polygon fill="#181818" points="139.84,515.8269,132.361,509.4187,135.0491,514.396,130.0717,517.0841,139.84,515.8269" style="stroke:#181818;stroke-width:1.0;"/><text fill="#000000" font-family="sans-serif" font-size="13" lengthAdjust="spacing" textLength="193" x="72" y="467.3638">ESC key pressed (WM_CLOSE)</text></g><!--link Running to Terminating--><g id="link_Running_Terminating"><path d="M257.48,424.5569 C262.54,434.1969 266.88,444.1969 270,454.2969 C276.27,474.5569 266.0254,487.721 247.2654,499.631 " fill="none" id="Running-to-Terminating-1" style="stroke:#181818;stroke-width:1.0;"/><polygon fill="#181818" points="242.2,502.8469,251.942,501.4001,246.4212,500.167,247.6542,494.6462,242.2,502.8469" style="stroke:#181818;stroke-width:1.0;"/><text fill="#000000" font-family="sans-serif" font-size="13" lengthAdjust="spacing" textLength="262" x="272" y="467.3638">Ctrl+C in console (WM_APP_SHUTDOWN)</text></g><!--link Terminating to *end*--><g id="link_Terminating_*end*"><path d="M191,551.3869 C191,575.3569 191,604.9969 191,622.2369 " fill="none" id="Terminating-to-*end*" style="stroke:#181818;stroke-width:1.0;"/><polygon fill="#181818" points="191,628.2369,195,619.2369,191,623.2369,187,619.2369,191,628.2369" style="stroke:#181818;stroke-width:1.0;"/><text fill="#000000" font-family="sans-serif" font-size="13" lengthAdjust="spacing" textLength="219" x="192" y="594.3638">Window Destroyed (WM_DESTROY)</text></g><!--SRC=[TP7HQeCm58RlprCSUjEvuGjuCIWgR51dQHmonYX1WptK9fB4ZMxitHUZ3bbPhavoll_yvoUMR2kGLLe86MwfELeCSTDrBLNSafB8BBS24-ADvcS0uw-hVIyboMQ5tE1KunUWEnEGgTu8pDJxJ8tbDJBCfyeZOmcUURrzmp2ydsGHvduJRVlEjyTdTC0eYd2ThV4aBjXfOOoeFJNsS37cB_KDC3izIhB4M_eSrbnUV7SA6M59ibOV66lXGjG0S_e1AeG-atIU0vYoU6c5DsLsYBSvIuF_DR7LxLsC9B5IqYZtCuDgiziTsCDpaUJbKm2mKFW9Bi3lMeamLglBP9UahDZdBm7y0000]--></g></svg>