<?xml version="1.0" encoding="us-ascii" standalone="no"?><svg xmlns="http://www.w3.org/2000/svg" xmlns:xlink="http://www.w3.org/1999/xlink" contentStyleType="text/css" height="278px" preserveAspectRatio="none" style="width:641px;height:278px;background:#FFFFFF;" version="1.1" viewBox="0 0 641 278" width="641px" zoomAndPan="magnify"><defs/><g><text fill="#000000" font-family="sans-serif" font-size="14" font-weight="bold" lengthAdjust="spacing" textLength="340" x="152" y="27.9951">Screen-Lighteer - Mouse Movement Sequence</text><rect fill="#FFFFFF" height="97.3984" style="stroke:#181818;stroke-width:1.0;" width="10" x="314.5" y="128.8594"/><rect fill="#FFFFFF" height="29.1328" style="stroke:#181818;stroke-width:1.0;" width="10" x="445" y="182.125"/><rect fill="none" height="135.6641" style="stroke:#000000;stroke-width:1.5;" width="625" x="10" y="90.5938"/><rect fill="none" height="75.3984" style="stroke:#000000;stroke-width:1.5;" width="358.5" x="266.5" y="143.8594"/><line style="stroke:#181818;stroke-width:0.5;stroke-dasharray:5.0,5.0;" x1="58" x2="58" y1="73.5938" y2="243.2578"/><line style="stroke:#181818;stroke-width:0.5;stroke-dasharray:5.0,5.0;" x1="319.5" x2="319.5" y1="73.5938" y2="243.2578"/><line style="stroke:#181818;stroke-width:0.5;stroke-dasharray:5.0,5.0;" x1="449.5" x2="449.5" y1="73.5938" y2="243.2578"/><line style="stroke:#181818;stroke-width:0.5;stroke-dasharray:5.0,5.0;" x1="598" x2="598" y1="73.5938" y2="243.2578"/><rect fill="#E2E2F0" height="30.2969" rx="2.5" ry="2.5" style="stroke:#181818;stroke-width:0.5;" width="77" x="20" y="42.2969"/><text fill="#000000" font-family="sans-serif" font-size="14" lengthAdjust="spacing" textLength="63" x="27" y="62.292">OS Timer</text><rect fill="#E2E2F0" height="30.2969" rx="2.5" ry="2.5" style="stroke:#181818;stroke-width:0.5;" width="77" x="20" y="242.2578"/><text fill="#000000" font-family="sans-serif" font-size="14" lengthAdjust="spacing" textLength="63" x="27" y="262.2529">OS Timer</text><rect fill="#E2E2F0" height="30.2969" rx="2.5" ry="2.5" style="stroke:#181818;stroke-width:0.5;" width="86" x="276.5" y="42.2969"/><text fill="#000000" font-family="sans-serif" font-size="14" lengthAdjust="spacing" textLength="72" x="283.5" y="62.292">WndProc()</text><rect fill="#E2E2F0" height="30.2969" rx="2.5" ry="2.5" style="stroke:#181818;stroke-width:0.5;" width="86" x="276.5" y="242.2578"/><text fill="#000000" font-family="sans-serif" font-size="14" lengthAdjust="spacing" textLength="72" x="283.5" y="262.2529">WndProc()</text><rect fill="#E2E2F0" height="30.2969" rx="2.5" ry="2.5" style="stroke:#181818;stroke-width:0.5;" width="155" x="372.5" y="42.2969"/><text fill="#000000" font-family="sans-serif" font-size="14" lengthAdjust="spacing" textLength="141" x="379.5" y="62.292">mover: MouseMover</text><rect fill="#E2E2F0" height="30.2969" rx="2.5" ry="2.5" style="stroke:#181818;stroke-width:0.5;" width="155" x="372.5" y="242.2578"/><text fill="#000000" font-family="sans-serif" font-size="14" lengthAdjust="spacing" textLength="141" x="379.5" y="262.2529">mover: MouseMover</text><rect fill="#E2E2F0" height="30.2969" rx="2.5" ry="2.5" style="stroke:#181818;stroke-width:0.5;" width="34" x="581" y="42.2969"/><text fill="#000000" font-family="sans-serif" font-size="14" lengthAdjust="spacing" textLength="20" x="588" y="62.292">OS</text><rect fill="#E2E2F0" height="30.2969" rx="2.5" ry="2.5" style="stroke:#181818;stroke-width:0.5;" width="34" x="581" y="242.2578"/><text fill="#000000" font-family="sans-serif" font-size="14" lengthAdjust="spacing" textLength="20" x="588" y="262.2529">OS</text><rect fill="#FFFFFF" height="97.3984" style="stroke:#181818;stroke-width:1.0;" width="10" x="314.5" y="128.8594"/><rect fill="#FFFFFF" height="29.1328" style="stroke:#181818;stroke-width:1.0;" width="10" x="445" y="182.125"/><path d="M10,90.5938 L87,90.5938 L87,97.7266 L77,107.7266 L10,107.7266 L10,90.5938 " fill="#EEEEEE" style="stroke:#000000;stroke-width:1.5;"/><rect fill="none" height="135.6641" style="stroke:#000000;stroke-width:1.5;" width="625" x="10" y="90.5938"/><text fill="#000000" font-family="sans-serif" font-size="13" font-weight="bold" lengthAdjust="spacing" textLength="32" x="25" y="103.6606">loop</text><text fill="#000000" font-family="sans-serif" font-size="11" font-weight="bold" lengthAdjust="spacing" textLength="83" x="102" y="102.8042">[Every 16ms]</text><polygon fill="#181818" points="302.5,124.8594,312.5,128.8594,302.5,132.8594,306.5,128.8594" style="stroke:#181818;stroke-width:1.0;"/><line style="stroke:#181818;stroke-width:1.0;" x1="58.5" x2="308.5" y1="128.8594" y2="128.8594"/><text fill="#000000" font-family="sans-serif" font-size="13" lengthAdjust="spacing" textLength="237" x="65.5" y="123.7935">WM_TIMER (IDT_MOUSEMOVE_TIMER)</text><path d="M266.5,143.8594 L330.5,143.8594 L330.5,150.9922 L320.5,160.9922 L266.5,160.9922 L266.5,143.8594 " fill="#EEEEEE" style="stroke:#000000;stroke-width:1.5;"/><rect fill="none" height="75.3984" style="stroke:#000000;stroke-width:1.5;" width="358.5" x="266.5" y="143.8594"/><text fill="#000000" font-family="sans-serif" font-size="13" font-weight="bold" lengthAdjust="spacing" textLength="19" x="281.5" y="156.9263">alt</text><text fill="#000000" font-family="sans-serif" font-size="11" font-weight="bold" lengthAdjust="spacing" textLength="177" x="345.5" y="156.0698">[mover.is_enabled() is true]</text><polygon fill="#181818" points="433,178.125,443,182.125,433,186.125,437,182.125" style="stroke:#181818;stroke-width:1.0;"/><line style="stroke:#181818;stroke-width:1.0;" x1="324.5" x2="439" y1="182.125" y2="182.125"/><text fill="#000000" font-family="sans-serif" font-size="13" lengthAdjust="spacing" textLength="55" x="331.5" y="177.0591">update()</text><polygon fill="#181818" points="586,207.2578,596,211.2578,586,215.2578,590,211.2578" style="stroke:#181818;stroke-width:1.0;"/><line style="stroke:#181818;stroke-width:1.0;" x1="450" x2="592" y1="211.2578" y2="211.2578"/><text fill="#000000" font-family="sans-serif" font-size="13" lengthAdjust="spacing" textLength="119" x="457" y="206.1919">SetCursorPos(x, y)</text><!--SRC=[RL1BIyGm4BxdLmnxIi4ANZpqu4LxM31qCTKzbfWE6cYJciVY_dlps5ONd4EO-MQ-1_7AJmXSMaHTFwkFJmyrC1CSnlU4CseF7By2Qec4BC9w9TKY8hhhEFHgHhi3uKftlJ_gyM2Df5K-k4pN9tEqi4tnItP5AtU4JCOiqCRs37VtioCGAzj0_R3ADN1aGxzdxGlG_LC_iEwLjwnxQmjOPPAGNfs4nor3GISFsVzMkG6rU9zmf1Ke1zu6p2UfBfpaoKhQi8nHZ5RRoQPVWgzmdXAluqtyG_yOh3FsO1pzle7pBtt4VmHGZoNcd-qQF-r-0000]--></g></svg>