<?xml version="1.0" encoding="us-ascii" standalone="no"?><svg xmlns="http://www.w3.org/2000/svg" xmlns:xlink="http://www.w3.org/1999/xlink" contentStyleType="text/css" height="351px" preserveAspectRatio="none" style="width:543px;height:351px;background:#FFFFFF;" version="1.1" viewBox="0 0 543 351" width="543px" zoomAndPan="magnify"><defs/><g><text fill="#000000" font-family="Verdana" font-size="22" font-weight="bold" lengthAdjust="spacing" textLength="442" x="46" y="35.4209">Screen-Light - Component Diagram</text><!--cluster Windows System Libraries--><g id="cluster_Windows System Libraries"><path d="M93,247.6094 L303,247.6094 A3.75,3.75 0 0 1 305.5,250.1094 L312.5,269.9063 L506,269.9063 A2.5,2.5 0 0 1 508.5,272.4063 L508.5,342.1094 A2.5,2.5 0 0 1 506,344.6094 L93,344.6094 A2.5,2.5 0 0 1 90.5,342.1094 L90.5,250.1094 A2.5,2.5 0 0 1 93,247.6094 " fill="#FFFFFF" style="stroke:#000000;stroke-width:1.0;"/><line style="stroke:#000000;stroke-width:1.0;" x1="90.5" x2="312.5" y1="269.9063" y2="269.9063"/><text fill="#000000" font-family="Verdana" font-size="14" font-weight="bold" lengthAdjust="spacing" textLength="209" x="94.5" y="262.6045">Windows System Libraries</text></g><!--entity User32--><g id="elem_User32"><rect fill="#FFFFFF" height="46.2969" rx="2.5" ry="2.5" style="stroke:#000000;stroke-width:1.0;" width="108" x="106.5" y="282.6094"/><rect fill="#FFFFFF" height="10" style="stroke:#000000;stroke-width:1.0;" width="15" x="194.5" y="287.6094"/><rect fill="#FFFFFF" height="2" style="stroke:#000000;stroke-width:1.0;" width="4" x="192.5" y="289.6094"/><rect fill="#FFFFFF" height="2" style="stroke:#000000;stroke-width:1.0;" width="4" x="192.5" y="293.6094"/><text fill="#000000" font-family="Verdana" font-size="14" lengthAdjust="spacing" textLength="68" x="121.5" y="315.6045">user32.dll</text></g><!--entity Gdi32--><g id="elem_Gdi32"><rect fill="#FFFFFF" height="46.2969" rx="2.5" ry="2.5" style="stroke:#000000;stroke-width:1.0;" width="98" x="249.5" y="282.6094"/><rect fill="#FFFFFF" height="10" style="stroke:#000000;stroke-width:1.0;" width="15" x="327.5" y="287.6094"/><rect fill="#FFFFFF" height="2" style="stroke:#000000;stroke-width:1.0;" width="4" x="325.5" y="289.6094"/><rect fill="#FFFFFF" height="2" style="stroke:#000000;stroke-width:1.0;" width="4" x="325.5" y="293.6094"/><text fill="#000000" font-family="Verdana" font-size="14" lengthAdjust="spacing" textLength="58" x="264.5" y="315.6045">gdi32.dll</text></g><!--entity Shell32--><g id="elem_Shell32"><rect fill="#FFFFFF" height="46.2969" rx="2.5" ry="2.5" style="stroke:#000000;stroke-width:1.0;" width="109" x="383" y="282.6094"/><rect fill="#FFFFFF" height="10" style="stroke:#000000;stroke-width:1.0;" width="15" x="472" y="287.6094"/><rect fill="#FFFFFF" height="2" style="stroke:#000000;stroke-width:1.0;" width="4" x="470" y="289.6094"/><rect fill="#FFFFFF" height="2" style="stroke:#000000;stroke-width:1.0;" width="4" x="470" y="293.6094"/><text fill="#000000" font-family="Verdana" font-size="14" lengthAdjust="spacing" textLength="69" x="398" y="315.6045">shell32.dll</text></g><!--entity App--><g id="elem_App"><rect fill="#FFFFFF" height="46.2969" rx="2.5" ry="2.5" style="stroke:#000000;stroke-width:1.0;" width="151" x="223" y="58.6094"/><rect fill="#FFFFFF" height="10" style="stroke:#000000;stroke-width:1.0;" width="15" x="354" y="63.6094"/><rect fill="#FFFFFF" height="2" style="stroke:#000000;stroke-width:1.0;" width="4" x="352" y="65.6094"/><rect fill="#FFFFFF" height="2" style="stroke:#000000;stroke-width:1.0;" width="4" x="352" y="69.6094"/><text fill="#000000" font-family="Verdana" font-size="14" lengthAdjust="spacing" textLength="111" x="238" y="91.6045">ScreenLight.exe</text></g><!--entity IWin--><g id="elem_IWin"><ellipse cx="85.5" cy="193.6094" fill="#FFFFFF" rx="8" ry="8" style="stroke:#000000;stroke-width:1.0;"/><text fill="#000000" font-family="Verdana" font-size="14" lengthAdjust="spacing" textLength="149" x="11" y="223.6045">Window Management</text></g><!--entity IGDI--><g id="elem_IGDI"><ellipse cx="298.5" cy="193.6094" fill="#FFFFFF" rx="8" ry="8" style="stroke:#000000;stroke-width:1.0;"/><text fill="#000000" font-family="Verdana" font-size="14" lengthAdjust="spacing" textLength="176" x="210.5" y="223.6045">Graphics Device Interface</text></g><!--entity IShell--><g id="elem_IShell"><ellipse cx="486.5" cy="193.6094" fill="#FFFFFF" rx="8" ry="8" style="stroke:#000000;stroke-width:1.0;"/><text fill="#000000" font-family="Verdana" font-size="14" lengthAdjust="spacing" textLength="99" x="437" y="223.6045">Windows Shell</text></g><!--link App to IWin--><g id="link_App_IWin"><path d="M255.65,104.7394 C204.39,131.2094 127.3714,170.987 100.0014,185.117 " fill="none" id="App-to-IWin" style="stroke:#000000;stroke-width:1.0;stroke-dasharray:7.0,7.0;"/><polygon fill="#000000" points="94.67,187.8694,104.5021,187.2951,99.1129,185.5757,100.8322,180.1865,94.67,187.8694" style="stroke:#000000;stroke-width:1.0;"/></g><!--link App to IGDI--><g id="link_App_IGDI"><path d="M298.5,104.8694 C298.5,129.4794 298.5,161.8394 298.5,178.4694 " fill="none" id="App-to-IGDI" style="stroke:#000000;stroke-width:1.0;stroke-dasharray:7.0,7.0;"/><polygon fill="#000000" points="298.5,184.4694,302.5,175.4694,298.5,179.4694,294.5,175.4694,298.5,184.4694" style="stroke:#000000;stroke-width:1.0;"/></g><!--link App to IShell--><g id="link_App_IShell"><path d="M336.54,104.8694 C381.18,130.9894 447.1013,169.5593 472.1913,184.2393 " fill="none" id="App-to-IShell" style="stroke:#000000;stroke-width:1.0;stroke-dasharray:7.0,7.0;"/><polygon fill="#000000" points="477.37,187.2694,471.622,179.2719,473.0544,184.7444,467.5819,186.1768,477.37,187.2694" style="stroke:#000000;stroke-width:1.0;"/></g><!--reverse link IWin to User32--><g id="link_IWin_User32"><path d="M101.2803,217.7513 C112.6603,234.4413 128.57,257.7694 145.3,282.3194 " fill="none" id="IWin-backto-User32" style="stroke:#000000;stroke-width:1.0;"/><polygon fill="none" points="91.14,202.8794,96.323,221.1314,106.2376,214.3712,91.14,202.8794" style="stroke:#000000;stroke-width:1.0;"/></g><!--reverse link IGDI to Gdi32--><g id="link_IGDI_Gdi32"><path d="M298.5,220.8794 C298.5,237.5694 298.5,257.7694 298.5,282.3194 " fill="none" id="IGDI-backto-Gdi32" style="stroke:#000000;stroke-width:1.0;"/><polygon fill="none" points="298.5,202.8794,292.5,220.8794,304.5,220.8794,298.5,202.8794" style="stroke:#000000;stroke-width:1.0;"/></g><!--reverse link IShell to Shell32--><g id="link_IShell_Shell32"><path d="M475.4912,219.3198 C468.0512,236.0098 458.36,257.7694 447.43,282.3194 " fill="none" id="IShell-backto-Shell32" style="stroke:#000000;stroke-width:1.0;"/><polygon fill="none" points="482.82,202.8794,470.0111,216.8769,480.9714,221.7628,482.82,202.8794" style="stroke:#000000;stroke-width:1.0;"/></g><!--SRC=[PKzDIyGm4BtFhnXxRm_hLGInK1RMKn4FYuUn7TjXapGaMNLH_xj9ioq5R_C-visycp2oPhIAn42Ge1ZRpZ6RyY336B34nqdRoR09M0iDZZI0Fucn54Vi5h4DbxXwrce7SCm9Sq35N_oAvF71MW1BtOa6nk95J3zzUcmlFh36WxmvSiA-m6z0F9uzkzjTrIirxpxFC0b3Bnk-IIZHVcIbDaARCVm2Y0ditgbRZ-8JcVY3ZayNoRkFzDRLEBAZT1vh_f18x1Sfkvjw_p_pUZ4xvX4W5iQgki_vAqZhAxWwamFlVifoAPfScSWDip4pIxK_]--></g></svg>