<?xml version="1.0" encoding="us-ascii" standalone="no"?><svg xmlns="http://www.w3.org/2000/svg" xmlns:xlink="http://www.w3.org/1999/xlink" contentStyleType="text/css" height="503px" preserveAspectRatio="none" style="width:675px;height:503px;background:#FFFFFF;" version="1.1" viewBox="0 0 675 503" width="675px" zoomAndPan="magnify"><defs/><g><text fill="#000000" font-family="sans-serif" font-size="14" font-weight="bold" lengthAdjust="spacing" textLength="403" x="134.5" y="32.9951">Screen-Light - User Input Handling (WM_KEYDOWN)</text><ellipse cx="225.125" cy="57.2969" fill="#222222" rx="10" ry="10" style="stroke:#222222;stroke-width:1.0;"/><rect fill="#F1F1F1" height="33.9688" rx="12.5" ry="12.5" style="stroke:#181818;stroke-width:0.5;" width="132" x="159.125" y="87.2969"/><text fill="#000000" font-family="sans-serif" font-size="12" lengthAdjust="spacing" textLength="112" x="169.125" y="108.4355">Wait for key press</text><polygon fill="#F1F1F1" points="191.625,141.2656,258.625,141.2656,270.625,153.2656,258.625,165.2656,191.625,165.2656,179.625,153.2656,191.625,141.2656" style="stroke:#181818;stroke-width:0.5;"/><text fill="#000000" font-family="sans-serif" font-size="11" lengthAdjust="spacing" textLength="67" x="191.625" y="157.0737">Key is ESC?</text><text fill="#000000" font-family="sans-serif" font-size="11" lengthAdjust="spacing" textLength="20" x="159.625" y="150.6714">yes</text><text fill="#000000" font-family="sans-serif" font-size="11" lengthAdjust="spacing" textLength="14" x="270.625" y="150.6714">no</text><rect fill="#F1F1F1" height="33.9688" rx="12.5" ry="12.5" style="stroke:#181818;stroke-width:0.5;" width="125" x="11" y="175.2656"/><text fill="#000000" font-family="sans-serif" font-size="12" lengthAdjust="spacing" textLength="105" x="21" y="196.4043">DestroyWindow()</text><ellipse cx="73.5" cy="255.2344" fill="none" rx="11" ry="11" style="stroke:#222222;stroke-width:1.0;"/><ellipse cx="73.5" cy="255.2344" fill="#222222" rx="6" ry="6" style="stroke:#222222;stroke-width:1.0;"/><polygon fill="#F1F1F1" points="331.25,175.2656,462.25,175.2656,474.25,187.2656,462.25,199.2656,331.25,199.2656,319.25,187.2656,331.25,175.2656" style="stroke:#181818;stroke-width:0.5;"/><text fill="#000000" font-family="sans-serif" font-size="11" lengthAdjust="spacing" textLength="131" x="331.25" y="191.0737">Key is Up/Down Arrow?</text><text fill="#000000" font-family="sans-serif" font-size="11" lengthAdjust="spacing" textLength="20" x="299.25" y="184.6714">yes</text><text fill="#000000" font-family="sans-serif" font-size="11" lengthAdjust="spacing" textLength="14" x="474.25" y="184.6714">no</text><rect fill="#F1F1F1" height="33.9688" rx="12.5" ry="12.5" style="stroke:#181818;stroke-width:0.5;" width="176" x="178" y="209.2656"/><text fill="#000000" font-family="sans-serif" font-size="12" lengthAdjust="spacing" textLength="156" x="188" y="230.4043">Check if SHIFT is pressed</text><rect fill="#F1F1F1" height="33.9688" rx="12.5" ry="12.5" style="stroke:#181818;stroke-width:0.5;" width="240" x="146" y="278.2344"/><text fill="#000000" font-family="sans-serif" font-size="12" lengthAdjust="spacing" textLength="220" x="156" y="299.373">Calculate brightness step (1 or 10)</text><rect fill="#F1F1F1" height="33.9688" rx="12.5" ry="12.5" style="stroke:#181818;stroke-width:0.5;" width="183" x="174.5" y="347.2031"/><text fill="#000000" font-family="sans-serif" font-size="12" lengthAdjust="spacing" textLength="163" x="184.5" y="368.3418">UpdateBackgroundColor()</text><rect fill="#F1F1F1" height="33.9688" rx="12.5" ry="12.5" style="stroke:#181818;stroke-width:0.5;" width="112" x="471.5" y="257.668"/><text fill="#000000" font-family="sans-serif" font-size="12" lengthAdjust="spacing" textLength="92" x="481.5" y="278.8066">mover.toggle()</text><rect fill="#F1F1F1" height="33.9688" rx="12.5" ry="12.5" style="stroke:#181818;stroke-width:0.5;" width="223" x="416" y="326.6367"/><text fill="#000000" font-family="sans-serif" font-size="12" lengthAdjust="spacing" textLength="203" x="426" y="347.7754">ShowCursor(mover.is_enabled())</text><polygon fill="#F1F1F1" points="498,209.2656,557,209.2656,569,221.2656,557,233.2656,498,233.2656,486,221.2656,498,209.2656" style="stroke:#181818;stroke-width:0.5;"/><text fill="#000000" font-family="sans-serif" font-size="11" lengthAdjust="spacing" textLength="20" x="531.5" y="243.4761">yes</text><text fill="#000000" font-family="sans-serif" font-size="11" lengthAdjust="spacing" textLength="59" x="498" y="225.0737">Key is 'M'?</text><polygon fill="#F1F1F1" points="527.5,385.0078,539.5,397.0078,527.5,409.0078,515.5,397.0078,527.5,385.0078" style="stroke:#181818;stroke-width:0.5;"/><polygon fill="#F1F1F1" points="396.75,415.0078,408.75,427.0078,396.75,439.0078,384.75,427.0078,396.75,415.0078" style="stroke:#181818;stroke-width:0.5;"/><rect fill="#F1F1F1" height="33.9688" rx="12.5" ry="12.5" style="stroke:#181818;stroke-width:0.5;" width="127" x="161.625" y="459.0078"/><text fill="#000000" font-family="sans-serif" font-size="12" lengthAdjust="spacing" textLength="107" x="171.625" y="480.1465">Return to waiting</text><line style="stroke:#181818;stroke-width:1.0;" x1="225.125" x2="225.125" y1="67.2969" y2="87.2969"/><polygon fill="#181818" points="221.125,77.2969,225.125,87.2969,229.125,77.2969,225.125,81.2969" style="stroke:#181818;stroke-width:1.0;"/><line style="stroke:#181818;stroke-width:1.0;" x1="73.5" x2="73.5" y1="209.2344" y2="244.2344"/><polygon fill="#181818" points="69.5,234.2344,73.5,244.2344,77.5,234.2344,73.5,238.2344" style="stroke:#181818;stroke-width:1.0;"/><line style="stroke:#181818;stroke-width:1.0;" x1="266" x2="266" y1="243.2344" y2="278.2344"/><polygon fill="#181818" points="262,268.2344,266,278.2344,270,268.2344,266,272.2344" style="stroke:#181818;stroke-width:1.0;"/><line style="stroke:#181818;stroke-width:1.0;" x1="266" x2="266" y1="312.2031" y2="347.2031"/><polygon fill="#181818" points="262,337.2031,266,347.2031,270,337.2031,266,341.2031" style="stroke:#181818;stroke-width:1.0;"/><line style="stroke:#181818;stroke-width:1.0;" x1="527.5" x2="527.5" y1="291.6367" y2="326.6367"/><polygon fill="#181818" points="523.5,316.6367,527.5,326.6367,531.5,316.6367,527.5,320.6367" style="stroke:#181818;stroke-width:1.0;"/><line style="stroke:#181818;stroke-width:1.0;" x1="527.5" x2="527.5" y1="233.2656" y2="257.668"/><polygon fill="#181818" points="523.5,247.668,527.5,257.668,531.5,247.668,527.5,251.668" style="stroke:#181818;stroke-width:1.0;"/><line style="stroke:#181818;stroke-width:1.0;" x1="569" x2="649" y1="221.2656" y2="221.2656"/><polygon fill="#181818" points="645,299.1367,649,309.1367,653,299.1367,649,303.1367" style="stroke:#181818;stroke-width:1.0;"/><line style="stroke:#181818;stroke-width:1.0;" x1="649" x2="649" y1="221.2656" y2="397.0078"/><line style="stroke:#181818;stroke-width:1.0;" x1="649" x2="539.5" y1="397.0078" y2="397.0078"/><polygon fill="#181818" points="549.5,393.0078,539.5,397.0078,549.5,401.0078,545.5,397.0078" style="stroke:#181818;stroke-width:1.0;"/><line style="stroke:#181818;stroke-width:1.0;" x1="527.5" x2="527.5" y1="360.6055" y2="385.0078"/><polygon fill="#181818" points="523.5,375.0078,527.5,385.0078,531.5,375.0078,527.5,379.0078" style="stroke:#181818;stroke-width:1.0;"/><line style="stroke:#181818;stroke-width:1.0;" x1="319.25" x2="266" y1="187.2656" y2="187.2656"/><line style="stroke:#181818;stroke-width:1.0;" x1="266" x2="266" y1="187.2656" y2="209.2656"/><polygon fill="#181818" points="262,199.2656,266,209.2656,270,199.2656,266,203.2656" style="stroke:#181818;stroke-width:1.0;"/><line style="stroke:#181818;stroke-width:1.0;" x1="474.25" x2="527.5" y1="187.2656" y2="187.2656"/><line style="stroke:#181818;stroke-width:1.0;" x1="527.5" x2="527.5" y1="187.2656" y2="209.2656"/><polygon fill="#181818" points="523.5,199.2656,527.5,209.2656,531.5,199.2656,527.5,203.2656" style="stroke:#181818;stroke-width:1.0;"/><line style="stroke:#181818;stroke-width:1.0;" x1="266" x2="266" y1="381.1719" y2="427.0078"/><line style="stroke:#181818;stroke-width:1.0;" x1="266" x2="384.75" y1="427.0078" y2="427.0078"/><polygon fill="#181818" points="374.75,423.0078,384.75,427.0078,374.75,431.0078,378.75,427.0078" style="stroke:#181818;stroke-width:1.0;"/><line style="stroke:#181818;stroke-width:1.0;" x1="527.5" x2="527.5" y1="409.0078" y2="427.0078"/><line style="stroke:#181818;stroke-width:1.0;" x1="527.5" x2="408.75" y1="427.0078" y2="427.0078"/><polygon fill="#181818" points="418.75,423.0078,408.75,427.0078,418.75,431.0078,414.75,427.0078" style="stroke:#181818;stroke-width:1.0;"/><line style="stroke:#181818;stroke-width:1.0;" x1="179.625" x2="73.5" y1="153.2656" y2="153.2656"/><line style="stroke:#181818;stroke-width:1.0;" x1="73.5" x2="73.5" y1="153.2656" y2="175.2656"/><polygon fill="#181818" points="69.5,165.2656,73.5,175.2656,77.5,165.2656,73.5,169.2656" style="stroke:#181818;stroke-width:1.0;"/><line style="stroke:#181818;stroke-width:1.0;" x1="270.625" x2="396.75" y1="153.2656" y2="153.2656"/><line style="stroke:#181818;stroke-width:1.0;" x1="396.75" x2="396.75" y1="153.2656" y2="175.2656"/><polygon fill="#181818" points="392.75,165.2656,396.75,175.2656,400.75,165.2656,396.75,169.2656" style="stroke:#181818;stroke-width:1.0;"/><line style="stroke:#181818;stroke-width:1.0;" x1="396.75" x2="396.75" y1="439.0078" y2="444.0078"/><line style="stroke:#181818;stroke-width:1.0;" x1="396.75" x2="225.125" y1="444.0078" y2="444.0078"/><line style="stroke:#181818;stroke-width:1.0;" x1="225.125" x2="225.125" y1="444.0078" y2="459.0078"/><polygon fill="#181818" points="221.125,449.0078,225.125,459.0078,229.125,449.0078,225.125,453.0078" style="stroke:#181818;stroke-width:1.0;"/><line style="stroke:#181818;stroke-width:1.0;" x1="225.125" x2="225.125" y1="121.2656" y2="141.2656"/><polygon fill="#181818" points="221.125,131.2656,225.125,141.2656,229.125,131.2656,225.125,135.2656" style="stroke:#181818;stroke-width:1.0;"/><!--SRC=[PP71JiCm38RlUGhVI0y3TbqF2BgXJMCWKQQAqvIrNXijn9NZKktjILcH1bmInVxz-uijLXn2NZAYdppPkX6Om3OWmygtdS3I-CfPNuCkDhlrudt-KZmdIWKnB6fM62jm88OZdg1b325LoXv0h-FR1bZasLq2qg07VSAGA83P78CmdGhhA-fraiPO46eLke2WFGsY2ujjUpEdtiCzC_L_pQ9Trc1v70hovUhnRQZuvi0g7VF6bPqpWh3duNi-9cD3R45F8P9FRvDHkMshA7imvR5cwdoLaIC-0rwo_QAxsbpzPufU7_I9V2rKrmxrs226yuRwhECGVSyA6tRepTvXfPDHXhwo1_LpdqyrUqNfs8CGz77cSI6f-W80]--></g></svg>