<?xml version="1.0" encoding="us-ascii" standalone="no"?><svg xmlns="http://www.w3.org/2000/svg" xmlns:xlink="http://www.w3.org/1999/xlink" contentStyleType="text/css" height="888px" preserveAspectRatio="none" style="width:1024px;height:888px;background:#FFFFFF;" version="1.1" viewBox="0 0 1024 888" width="1024px" zoomAndPan="magnify"><defs/><g><text fill="#000000" font-family="sans-serif" font-size="14" font-weight="bold" lengthAdjust="spacing" textLength="351" x="335.5" y="27.9951">Screen-Light - Application Startup Sequence</text><rect fill="#FFFFFF" height="29.1328" style="stroke:#181818;stroke-width:1.0;" width="10" x="826" y="490.1875"/><rect fill="none" height="75.3984" style="stroke:#000000;stroke-width:1.5;" width="423.5" x="261" y="278.125"/><rect fill="none" height="162.7969" style="stroke:#000000;stroke-width:1.5;" width="623" x="261" y="627.7188"/><line style="stroke:#181818;stroke-width:0.5;stroke-dasharray:5.0,5.0;" x1="24" x2="24" y1="118.5938" y2="807.5156"/><line style="stroke:#181818;stroke-width:0.5;stroke-dasharray:5.0,5.0;" x1="288" x2="288" y1="118.5938" y2="807.5156"/><line style="stroke:#181818;stroke-width:0.5;stroke-dasharray:5.0,5.0;" x1="633.5" x2="633.5" y1="118.5938" y2="807.5156"/><line style="stroke:#181818;stroke-width:0.5;stroke-dasharray:5.0,5.0;" x1="831" x2="831" y1="118.5938" y2="807.5156"/><line style="stroke:#181818;stroke-width:0.5;stroke-dasharray:5.0,5.0;" x1="951" x2="951" y1="118.5938" y2="807.5156"/><text fill="#000000" font-family="sans-serif" font-size="14" lengthAdjust="spacing" textLength="32" x="5" y="115.292">User</text><ellipse cx="24" cy="50.7969" fill="#E2E2F0" rx="8" ry="8" style="stroke:#181818;stroke-width:0.5;"/><path d="M24,58.7969 L24,85.7969 M11,66.7969 L37,66.7969 M24,85.7969 L11,100.7969 M24,85.7969 L37,100.7969 " fill="none" style="stroke:#181818;stroke-width:0.5;"/><text fill="#000000" font-family="sans-serif" font-size="14" lengthAdjust="spacing" textLength="32" x="5" y="819.5107">User</text><ellipse cx="24" cy="831.3125" fill="#E2E2F0" rx="8" ry="8" style="stroke:#181818;stroke-width:0.5;"/><path d="M24,839.3125 L24,866.3125 M11,847.3125 L37,847.3125 M24,866.3125 L11,881.3125 M24,866.3125 L37,881.3125 " fill="none" style="stroke:#181818;stroke-width:0.5;"/><rect fill="#E2E2F0" height="30.2969" rx="2.5" ry="2.5" style="stroke:#181818;stroke-width:0.5;" width="34" x="271" y="87.2969"/><text fill="#000000" font-family="sans-serif" font-size="14" lengthAdjust="spacing" textLength="20" x="278" y="107.292">OS</text><rect fill="#E2E2F0" height="30.2969" rx="2.5" ry="2.5" style="stroke:#181818;stroke-width:0.5;" width="34" x="271" y="806.5156"/><text fill="#000000" font-family="sans-serif" font-size="14" lengthAdjust="spacing" textLength="20" x="278" y="826.5107">OS</text><rect fill="#E2E2F0" height="30.2969" rx="2.5" ry="2.5" style="stroke:#181818;stroke-width:0.5;" width="81" x="593.5" y="87.2969"/><text fill="#000000" font-family="sans-serif" font-size="14" lengthAdjust="spacing" textLength="67" x="600.5" y="107.292">WinMain()</text><rect fill="#E2E2F0" height="30.2969" rx="2.5" ry="2.5" style="stroke:#181818;stroke-width:0.5;" width="81" x="593.5" y="806.5156"/><text fill="#000000" font-family="sans-serif" font-size="14" lengthAdjust="spacing" textLength="67" x="600.5" y="826.5107">WinMain()</text><rect fill="#E2E2F0" height="30.2969" rx="2.5" ry="2.5" style="stroke:#181818;stroke-width:0.5;" width="86" x="788" y="87.2969"/><text fill="#000000" font-family="sans-serif" font-size="14" lengthAdjust="spacing" textLength="72" x="795" y="107.292">WndProc()</text><rect fill="#E2E2F0" height="30.2969" rx="2.5" ry="2.5" style="stroke:#181818;stroke-width:0.5;" width="86" x="788" y="806.5156"/><text fill="#000000" font-family="sans-serif" font-size="14" lengthAdjust="spacing" textLength="72" x="795" y="826.5107">WndProc()</text><rect fill="#E2E2F0" height="30.2969" rx="2.5" ry="2.5" style="stroke:#181818;stroke-width:0.5;" width="134" x="884" y="87.2969"/><text fill="#000000" font-family="sans-serif" font-size="14" lengthAdjust="spacing" textLength="120" x="891" y="107.292">ConsoleHandler()</text><rect fill="#E2E2F0" height="30.2969" rx="2.5" ry="2.5" style="stroke:#181818;stroke-width:0.5;" width="134" x="884" y="806.5156"/><text fill="#000000" font-family="sans-serif" font-size="14" lengthAdjust="spacing" textLength="120" x="891" y="826.5107">ConsoleHandler()</text><rect fill="#FFFFFF" height="29.1328" style="stroke:#181818;stroke-width:1.0;" width="10" x="826" y="490.1875"/><polygon fill="#181818" points="276,145.7266,286,149.7266,276,153.7266,280,149.7266" style="stroke:#181818;stroke-width:1.0;"/><line style="stroke:#181818;stroke-width:1.0;" x1="24" x2="282" y1="149.7266" y2="149.7266"/><text fill="#000000" font-family="sans-serif" font-size="13" lengthAdjust="spacing" textLength="240" x="31" y="144.6606">Executes ScreenLight.exe [--verbose]</text><polygon fill="#181818" points="622,174.8594,632,178.8594,622,182.8594,626,178.8594" style="stroke:#181818;stroke-width:1.0;"/><line style="stroke:#181818;stroke-width:1.0;" x1="288" x2="628" y1="178.8594" y2="178.8594"/><text fill="#000000" font-family="sans-serif" font-size="13" lengthAdjust="spacing" textLength="103" x="295" y="173.7935">Calls entry point</text><line style="stroke:#181818;stroke-width:1.0;" x1="634" x2="676" y1="207.9922" y2="207.9922"/><line style="stroke:#181818;stroke-width:1.0;" x1="676" x2="676" y1="207.9922" y2="220.9922"/><line style="stroke:#181818;stroke-width:1.0;" x1="635" x2="676" y1="220.9922" y2="220.9922"/><polygon fill="#181818" points="645,216.9922,635,220.9922,645,224.9922,641,220.9922" style="stroke:#181818;stroke-width:1.0;"/><text fill="#000000" font-family="sans-serif" font-size="13" lengthAdjust="spacing" textLength="139" x="641" y="202.9263">ParseCommandLine()</text><line style="stroke:#181818;stroke-width:1.0;" x1="634" x2="676" y1="250.125" y2="250.125"/><line style="stroke:#181818;stroke-width:1.0;" x1="676" x2="676" y1="250.125" y2="263.125"/><line style="stroke:#181818;stroke-width:1.0;" x1="635" x2="676" y1="263.125" y2="263.125"/><polygon fill="#181818" points="645,259.125,635,263.125,645,267.125,641,263.125" style="stroke:#181818;stroke-width:1.0;"/><text fill="#000000" font-family="sans-serif" font-size="13" lengthAdjust="spacing" textLength="183" x="641" y="245.0591">setup_verbosity_from_args()</text><path d="M261,278.125 L325,278.125 L325,285.2578 L315,295.2578 L261,295.2578 L261,278.125 " fill="#EEEEEE" style="stroke:#000000;stroke-width:1.5;"/><rect fill="none" height="75.3984" style="stroke:#000000;stroke-width:1.5;" width="423.5" x="261" y="278.125"/><text fill="#000000" font-family="sans-serif" font-size="13" font-weight="bold" lengthAdjust="spacing" textLength="19" x="276" y="291.1919">alt</text><text fill="#000000" font-family="sans-serif" font-size="11" font-weight="bold" lengthAdjust="spacing" textLength="168" x="340" y="290.3354">[--verbose flag is present]</text><polygon fill="#181818" points="299,312.3906,289,316.3906,299,320.3906,295,316.3906" style="stroke:#181818;stroke-width:1.0;"/><line style="stroke:#181818;stroke-width:1.0;" x1="293" x2="633" y1="316.3906" y2="316.3906"/><text fill="#000000" font-family="sans-serif" font-size="13" lengthAdjust="spacing" textLength="206" x="305" y="311.3247">AllocConsole() / AttachConsole()</text><polygon fill="#181818" points="299,341.5234,289,345.5234,299,349.5234,295,345.5234" style="stroke:#181818;stroke-width:1.0;"/><line style="stroke:#181818;stroke-width:1.0;" x1="293" x2="633" y1="345.5234" y2="345.5234"/><text fill="#000000" font-family="sans-serif" font-size="13" lengthAdjust="spacing" textLength="256" x="305" y="340.4575">SetConsoleCtrlHandler(ConsoleHandler)</text><polygon fill="#181818" points="299,388.2227,289,392.2227,299,396.2227,295,392.2227" style="stroke:#181818;stroke-width:1.0;"/><line style="stroke:#181818;stroke-width:1.0;" x1="293" x2="633" y1="392.2227" y2="392.2227"/><text fill="#000000" font-family="sans-serif" font-size="13" lengthAdjust="spacing" textLength="127" x="305" y="387.1567">RegisterClassEx(wc)</text><path d="M639,365.5234 L639,405.5234 L907,405.5234 L907,375.5234 L897,365.5234 L639,365.5234 " fill="#FEFFDD" style="stroke:#181818;stroke-width:0.5;"/><path d="M897,365.5234 L897,375.5234 L907,375.5234 L897,365.5234 " fill="#FEFFDD" style="stroke:#181818;stroke-width:0.5;"/><text fill="#000000" font-family="sans-serif" font-size="13" lengthAdjust="spacing" textLength="170" x="645" y="382.5903">Window Class is configured</text><text fill="#000000" font-family="sans-serif" font-size="13" lengthAdjust="spacing" textLength="247" x="645" y="397.7231">with WndProc as the message handler.</text><polygon fill="#181818" points="622,427.9219,632,431.9219,622,435.9219,626,431.9219" style="stroke:#181818;stroke-width:1.0;"/><line style="stroke:#181818;stroke-width:1.0;" x1="288" x2="628" y1="431.9219" y2="431.9219"/><text fill="#000000" font-family="sans-serif" font-size="13" lengthAdjust="spacing" textLength="104" x="295" y="426.856">Returns success</text><polygon fill="#181818" points="299,457.0547,289,461.0547,299,465.0547,295,461.0547" style="stroke:#181818;stroke-width:1.0;"/><line style="stroke:#181818;stroke-width:1.0;" x1="293" x2="633" y1="461.0547" y2="461.0547"/><text fill="#000000" font-family="sans-serif" font-size="13" lengthAdjust="spacing" textLength="127" x="305" y="455.9888">CreateWindowEx(...)</text><polygon fill="#181818" points="814,486.1875,824,490.1875,814,494.1875,818,490.1875" style="stroke:#181818;stroke-width:1.0;"/><line style="stroke:#181818;stroke-width:1.0;" x1="288" x2="820" y1="490.1875" y2="490.1875"/><text fill="#000000" font-family="sans-serif" font-size="13" lengthAdjust="spacing" textLength="185" x="295" y="485.1216">Sends WM_CREATE message</text><polygon fill="#181818" points="299,515.3203,289,519.3203,299,523.3203,295,519.3203" style="stroke:#181818;stroke-width:1.0;"/><line style="stroke:#181818;stroke-width:1.0;" x1="293" x2="830" y1="519.3203" y2="519.3203"/><text fill="#000000" font-family="sans-serif" font-size="13" lengthAdjust="spacing" textLength="225" x="305" y="514.2544">SetTimer(IDT_MOUSEMOVE_TIMER)</text><polygon fill="#181818" points="622,544.4531,632,548.4531,622,552.4531,626,548.4531" style="stroke:#181818;stroke-width:1.0;"/><line style="stroke:#181818;stroke-width:1.0;" x1="288" x2="628" y1="548.4531" y2="548.4531"/><text fill="#000000" font-family="sans-serif" font-size="13" lengthAdjust="spacing" textLength="192" x="295" y="543.3872">Returns window handle (hwnd)</text><polygon fill="#181818" points="299,573.5859,289,577.5859,299,581.5859,295,577.5859" style="stroke:#181818;stroke-width:1.0;"/><line style="stroke:#181818;stroke-width:1.0;" x1="293" x2="633" y1="577.5859" y2="577.5859"/><text fill="#000000" font-family="sans-serif" font-size="13" lengthAdjust="spacing" textLength="124" x="305" y="572.52">ShowWindow(hwnd)</text><polygon fill="#181818" points="299,605.7188,289,609.7188,299,613.7188,295,609.7188" style="stroke:#181818;stroke-width:1.0;"/><line style="stroke:#181818;stroke-width:1.0;" x1="293" x2="633" y1="609.7188" y2="609.7188"/><text fill="#000000" font-family="sans-serif" font-size="13" lengthAdjust="spacing" textLength="322" x="305" y="604.6528">SetThreadExecutionState(ES_DISPLAY_REQUIRED)</text><path d="M639,590.5859 L639,615.5859 L865,615.5859 L865,600.5859 L855,590.5859 L639,590.5859 " fill="#FEFFDD" style="stroke:#181818;stroke-width:0.5;"/><path d="M855,590.5859 L855,600.5859 L865,600.5859 L855,590.5859 " fill="#FEFFDD" style="stroke:#181818;stroke-width:0.5;"/><text fill="#000000" font-family="sans-serif" font-size="13" lengthAdjust="spacing" textLength="205" x="645" y="607.6528">Prevents monitor from sleeping.</text><path d="M261,627.7188 L338,627.7188 L338,634.8516 L328,644.8516 L261,644.8516 L261,627.7188 " fill="#EEEEEE" style="stroke:#000000;stroke-width:1.5;"/><rect fill="none" height="162.7969" style="stroke:#000000;stroke-width:1.5;" width="623" x="261" y="627.7188"/><text fill="#000000" font-family="sans-serif" font-size="13" font-weight="bold" lengthAdjust="spacing" textLength="32" x="276" y="640.7856">loop</text><text fill="#000000" font-family="sans-serif" font-size="11" font-weight="bold" lengthAdjust="spacing" textLength="102" x="353" y="639.9292">[Message Loop]</text><polygon fill="#181818" points="299,661.9844,289,665.9844,299,669.9844,295,665.9844" style="stroke:#181818;stroke-width:1.0;"/><line style="stroke:#181818;stroke-width:1.0;" x1="293" x2="633" y1="665.9844" y2="665.9844"/><text fill="#000000" font-family="sans-serif" font-size="13" lengthAdjust="spacing" textLength="90" x="305" y="660.9185">GetMessage()</text><polygon fill="#181818" points="622,691.1172,632,695.1172,622,699.1172,626,695.1172" style="stroke:#181818;stroke-width:1.0;"/><line style="stroke:#181818;stroke-width:1.0;stroke-dasharray:2.0,2.0;" x1="288" x2="628" y1="695.1172" y2="695.1172"/><text fill="#000000" font-family="sans-serif" font-size="13" lengthAdjust="spacing" textLength="126" x="295" y="690.0513">(waits for message)</text><polygon fill="#181818" points="299,720.25,289,724.25,299,728.25,295,724.25" style="stroke:#181818;stroke-width:1.0;"/><line style="stroke:#181818;stroke-width:1.0;" x1="293" x2="633" y1="724.25" y2="724.25"/><text fill="#000000" font-family="sans-serif" font-size="13" lengthAdjust="spacing" textLength="126" x="305" y="719.1841">TranslateMessage()</text><polygon fill="#181818" points="299,749.3828,289,753.3828,299,757.3828,295,753.3828" style="stroke:#181818;stroke-width:1.0;"/><line style="stroke:#181818;stroke-width:1.0;" x1="293" x2="633" y1="753.3828" y2="753.3828"/><text fill="#000000" font-family="sans-serif" font-size="13" lengthAdjust="spacing" textLength="123" x="305" y="748.3169">DispatchMessage()</text><polygon fill="#181818" points="819,778.5156,829,782.5156,819,786.5156,823,782.5156" style="stroke:#181818;stroke-width:1.0;"/><line style="stroke:#181818;stroke-width:1.0;" x1="288" x2="825" y1="782.5156" y2="782.5156"/><text fill="#000000" font-family="sans-serif" font-size="13" lengthAdjust="spacing" textLength="181" x="295" y="777.4497">Calls WndProc with message</text><!--SRC=[TLF1Zjem4BtxAqPxIWxGEuTAA4Gj4WYQGAkghIBN6H9BnaxjWUp-VMsIx9AmUxJdZUUzDyyaII7amYBgsKPMDS4CbasZfE0aZOQSkALB0pd-kw0Mo1WNP2mS7LhM-9eKik6Qu6cNFm5tiCl7rp-atdAfe_XMxKyJY2xtreW1qft6aCHePnH-vRfKQ7la-9Anm0bcdps51QJFA2w4hjTsapR7PuHVizaLxL_Zy0_RvG7USrf0mfLoW9hi2pH6QcAihurWUsuT9kPyzdCtKcCKlmjpw7qhkbcINegJDUU2syfvFEFA6pqGWPFY5KW7ZKNdnpE0kmU3cgLIHlHoenW-mPA8Y_hrvh4ZH-gh2Lar-3PsB6Qeov76q9bX9HsXJHHtBdsEMX4pRGZ11WyNOL1fMhYL0sbXz4bM5ulbRzrAgeS5XWrHZN16vtY5K7T3vsngU-QDijg1kmZXiLC-YKLEs4trTERpUJoyq0qAOdNfWxCjaYnT7j9Xv2shykgxNqCrS7jpwI3FtfZrwb1iTySytUw-fyLXlKspc9NuqFyHzxOpfTC8KTtgCfuAoMlJTZ8-g7iojHTRTjdrlyz_Fi8epOlLEjzlbZ-BBFrsN6VfQhoHlSMhZus3iz4oVCuGDN0AiP6wyeOhOnhOzdlO-CDZNhuWzO1RceBCUvrHowKVSFAFz-Q-axc3vTefJ_d-fGbc9Lt3ITJJONVRxBxXiAbRf8Q5Xhp-1m00]--></g></svg>