<?xml version="1.0" encoding="us-ascii" standalone="no"?><svg xmlns="http://www.w3.org/2000/svg" xmlns:xlink="http://www.w3.org/1999/xlink" contentStyleType="text/css" height="888px" preserveAspectRatio="none" style="width:1045px;height:888px;background:#FFFFFF;" version="1.1" viewBox="0 0 1045 888" width="1045px" zoomAndPan="magnify"><defs/><g><text fill="#000000" font-family="sans-serif" font-size="14" font-weight="bold" lengthAdjust="spacing" textLength="351" x="346" y="27.9951">Screen-Lighteer - Application Startup Sequence</text><rect fill="#FFFFFF" height="29.1328" style="stroke:#181818;stroke-width:1.0;" width="10" x="847" y="490.1875"/><rect fill="none" height="75.3984" style="stroke:#000000;stroke-width:1.5;" width="423.5" x="282" y="278.125"/><rect fill="none" height="162.7969" style="stroke:#000000;stroke-width:1.5;" width="623" x="282" y="627.7188"/><line style="stroke:#181818;stroke-width:0.5;stroke-dasharray:5.0,5.0;" x1="24" x2="24" y1="118.5938" y2="807.5156"/><line style="stroke:#181818;stroke-width:0.5;stroke-dasharray:5.0,5.0;" x1="309" x2="309" y1="118.5938" y2="807.5156"/><line style="stroke:#181818;stroke-width:0.5;stroke-dasharray:5.0,5.0;" x1="654.5" x2="654.5" y1="118.5938" y2="807.5156"/><line style="stroke:#181818;stroke-width:0.5;stroke-dasharray:5.0,5.0;" x1="852" x2="852" y1="118.5938" y2="807.5156"/><line style="stroke:#181818;stroke-width:0.5;stroke-dasharray:5.0,5.0;" x1="972" x2="972" y1="118.5938" y2="807.5156"/><text fill="#000000" font-family="sans-serif" font-size="14" lengthAdjust="spacing" textLength="32" x="5" y="115.292">User</text><ellipse cx="24" cy="50.7969" fill="#E2E2F0" rx="8" ry="8" style="stroke:#181818;stroke-width:0.5;"/><path d="M24,58.7969 L24,85.7969 M11,66.7969 L37,66.7969 M24,85.7969 L11,100.7969 M24,85.7969 L37,100.7969 " fill="none" style="stroke:#181818;stroke-width:0.5;"/><text fill="#000000" font-family="sans-serif" font-size="14" lengthAdjust="spacing" textLength="32" x="5" y="819.5107">User</text><ellipse cx="24" cy="831.3125" fill="#E2E2F0" rx="8" ry="8" style="stroke:#181818;stroke-width:0.5;"/><path d="M24,839.3125 L24,866.3125 M11,847.3125 L37,847.3125 M24,866.3125 L11,881.3125 M24,866.3125 L37,881.3125 " fill="none" style="stroke:#181818;stroke-width:0.5;"/><rect fill="#E2E2F0" height="30.2969" rx="2.5" ry="2.5" style="stroke:#181818;stroke-width:0.5;" width="34" x="292" y="87.2969"/><text fill="#000000" font-family="sans-serif" font-size="14" lengthAdjust="spacing" textLength="20" x="299" y="107.292">OS</text><rect fill="#E2E2F0" height="30.2969" rx="2.5" ry="2.5" style="stroke:#181818;stroke-width:0.5;" width="34" x="292" y="806.5156"/><text fill="#000000" font-family="sans-serif" font-size="14" lengthAdjust="spacing" textLength="20" x="299" y="826.5107">OS</text><rect fill="#E2E2F0" height="30.2969" rx="2.5" ry="2.5" style="stroke:#181818;stroke-width:0.5;" width="81" x="614.5" y="87.2969"/><text fill="#000000" font-family="sans-serif" font-size="14" lengthAdjust="spacing" textLength="67" x="621.5" y="107.292">WinMain()</text><rect fill="#E2E2F0" height="30.2969" rx="2.5" ry="2.5" style="stroke:#181818;stroke-width:0.5;" width="81" x="614.5" y="806.5156"/><text fill="#000000" font-family="sans-serif" font-size="14" lengthAdjust="spacing" textLength="67" x="621.5" y="826.5107">WinMain()</text><rect fill="#E2E2F0" height="30.2969" rx="2.5" ry="2.5" style="stroke:#181818;stroke-width:0.5;" width="86" x="809" y="87.2969"/><text fill="#000000" font-family="sans-serif" font-size="14" lengthAdjust="spacing" textLength="72" x="816" y="107.292">WndProc()</text><rect fill="#E2E2F0" height="30.2969" rx="2.5" ry="2.5" style="stroke:#181818;stroke-width:0.5;" width="86" x="809" y="806.5156"/><text fill="#000000" font-family="sans-serif" font-size="14" lengthAdjust="spacing" textLength="72" x="816" y="826.5107">WndProc()</text><rect fill="#E2E2F0" height="30.2969" rx="2.5" ry="2.5" style="stroke:#181818;stroke-width:0.5;" width="134" x="905" y="87.2969"/><text fill="#000000" font-family="sans-serif" font-size="14" lengthAdjust="spacing" textLength="120" x="912" y="107.292">ConsoleHandler()</text><rect fill="#E2E2F0" height="30.2969" rx="2.5" ry="2.5" style="stroke:#181818;stroke-width:0.5;" width="134" x="905" y="806.5156"/><text fill="#000000" font-family="sans-serif" font-size="14" lengthAdjust="spacing" textLength="120" x="912" y="826.5107">ConsoleHandler()</text><rect fill="#FFFFFF" height="29.1328" style="stroke:#181818;stroke-width:1.0;" width="10" x="847" y="490.1875"/><polygon fill="#181818" points="297,145.7266,307,149.7266,297,153.7266,301,149.7266" style="stroke:#181818;stroke-width:1.0;"/><line style="stroke:#181818;stroke-width:1.0;" x1="24" x2="303" y1="149.7266" y2="149.7266"/><text fill="#000000" font-family="sans-serif" font-size="13" lengthAdjust="spacing" textLength="261" x="31" y="144.6606">Executes ScreenLighteer.exe [--verbose]</text><polygon fill="#181818" points="643,174.8594,653,178.8594,643,182.8594,647,178.8594" style="stroke:#181818;stroke-width:1.0;"/><line style="stroke:#181818;stroke-width:1.0;" x1="309" x2="649" y1="178.8594" y2="178.8594"/><text fill="#000000" font-family="sans-serif" font-size="13" lengthAdjust="spacing" textLength="103" x="316" y="173.7935">Calls entry point</text><line style="stroke:#181818;stroke-width:1.0;" x1="655" x2="697" y1="207.9922" y2="207.9922"/><line style="stroke:#181818;stroke-width:1.0;" x1="697" x2="697" y1="207.9922" y2="220.9922"/><line style="stroke:#181818;stroke-width:1.0;" x1="656" x2="697" y1="220.9922" y2="220.9922"/><polygon fill="#181818" points="666,216.9922,656,220.9922,666,224.9922,662,220.9922" style="stroke:#181818;stroke-width:1.0;"/><text fill="#000000" font-family="sans-serif" font-size="13" lengthAdjust="spacing" textLength="139" x="662" y="202.9263">ParseCommandLine()</text><line style="stroke:#181818;stroke-width:1.0;" x1="655" x2="697" y1="250.125" y2="250.125"/><line style="stroke:#181818;stroke-width:1.0;" x1="697" x2="697" y1="250.125" y2="263.125"/><line style="stroke:#181818;stroke-width:1.0;" x1="656" x2="697" y1="263.125" y2="263.125"/><polygon fill="#181818" points="666,259.125,656,263.125,666,267.125,662,263.125" style="stroke:#181818;stroke-width:1.0;"/><text fill="#000000" font-family="sans-serif" font-size="13" lengthAdjust="spacing" textLength="183" x="662" y="245.0591">setup_verbosity_from_args()</text><path d="M282,278.125 L346,278.125 L346,285.2578 L336,295.2578 L282,295.2578 L282,278.125 " fill="#EEEEEE" style="stroke:#000000;stroke-width:1.5;"/><rect fill="none" height="75.3984" style="stroke:#000000;stroke-width:1.5;" width="423.5" x="282" y="278.125"/><text fill="#000000" font-family="sans-serif" font-size="13" font-weight="bold" lengthAdjust="spacing" textLength="19" x="297" y="291.1919">alt</text><text fill="#000000" font-family="sans-serif" font-size="11" font-weight="bold" lengthAdjust="spacing" textLength="168" x="361" y="290.3354">[--verbose flag is present]</text><polygon fill="#181818" points="320,312.3906,310,316.3906,320,320.3906,316,316.3906" style="stroke:#181818;stroke-width:1.0;"/><line style="stroke:#181818;stroke-width:1.0;" x1="314" x2="654" y1="316.3906" y2="316.3906"/><text fill="#000000" font-family="sans-serif" font-size="13" lengthAdjust="spacing" textLength="206" x="326" y="311.3247">AllocConsole() / AttachConsole()</text><polygon fill="#181818" points="320,341.5234,310,345.5234,320,349.5234,316,345.5234" style="stroke:#181818;stroke-width:1.0;"/><line style="stroke:#181818;stroke-width:1.0;" x1="314" x2="654" y1="345.5234" y2="345.5234"/><text fill="#000000" font-family="sans-serif" font-size="13" lengthAdjust="spacing" textLength="256" x="326" y="340.4575">SetConsoleCtrlHandler(ConsoleHandler)</text><polygon fill="#181818" points="320,388.2227,310,392.2227,320,396.2227,316,392.2227" style="stroke:#181818;stroke-width:1.0;"/><line style="stroke:#181818;stroke-width:1.0;" x1="314" x2="654" y1="392.2227" y2="392.2227"/><text fill="#000000" font-family="sans-serif" font-size="13" lengthAdjust="spacing" textLength="127" x="326" y="387.1567">RegisterClassEx(wc)</text><path d="M660,365.5234 L660,405.5234 L928,405.5234 L928,375.5234 L918,365.5234 L660,365.5234 " fill="#FEFFDD" style="stroke:#181818;stroke-width:0.5;"/><path d="M918,365.5234 L918,375.5234 L928,375.5234 L918,365.5234 " fill="#FEFFDD" style="stroke:#181818;stroke-width:0.5;"/><text fill="#000000" font-family="sans-serif" font-size="13" lengthAdjust="spacing" textLength="170" x="666" y="382.5903">Window Class is configured</text><text fill="#000000" font-family="sans-serif" font-size="13" lengthAdjust="spacing" textLength="247" x="666" y="397.7231">with WndProc as the message handler.</text><polygon fill="#181818" points="643,427.9219,653,431.9219,643,435.9219,647,431.9219" style="stroke:#181818;stroke-width:1.0;"/><line style="stroke:#181818;stroke-width:1.0;" x1="309" x2="649" y1="431.9219" y2="431.9219"/><text fill="#000000" font-family="sans-serif" font-size="13" lengthAdjust="spacing" textLength="104" x="316" y="426.856">Returns success</text><polygon fill="#181818" points="320,457.0547,310,461.0547,320,465.0547,316,461.0547" style="stroke:#181818;stroke-width:1.0;"/><line style="stroke:#181818;stroke-width:1.0;" x1="314" x2="654" y1="461.0547" y2="461.0547"/><text fill="#000000" font-family="sans-serif" font-size="13" lengthAdjust="spacing" textLength="127" x="326" y="455.9888">CreateWindowEx(...)</text><polygon fill="#181818" points="835,486.1875,845,490.1875,835,494.1875,839,490.1875" style="stroke:#181818;stroke-width:1.0;"/><line style="stroke:#181818;stroke-width:1.0;" x1="309" x2="841" y1="490.1875" y2="490.1875"/><text fill="#000000" font-family="sans-serif" font-size="13" lengthAdjust="spacing" textLength="185" x="316" y="485.1216">Sends WM_CREATE message</text><polygon fill="#181818" points="320,515.3203,310,519.3203,320,523.3203,316,519.3203" style="stroke:#181818;stroke-width:1.0;"/><line style="stroke:#181818;stroke-width:1.0;" x1="314" x2="851" y1="519.3203" y2="519.3203"/><text fill="#000000" font-family="sans-serif" font-size="13" lengthAdjust="spacing" textLength="225" x="326" y="514.2544">SetTimer(IDT_MOUSEMOVE_TIMER)</text><polygon fill="#181818" points="643,544.4531,653,548.4531,643,552.4531,647,548.4531" style="stroke:#181818;stroke-width:1.0;"/><line style="stroke:#181818;stroke-width:1.0;" x1="309" x2="649" y1="548.4531" y2="548.4531"/><text fill="#000000" font-family="sans-serif" font-size="13" lengthAdjust="spacing" textLength="192" x="316" y="543.3872">Returns window handle (hwnd)</text><polygon fill="#181818" points="320,573.5859,310,577.5859,320,581.5859,316,577.5859" style="stroke:#181818;stroke-width:1.0;"/><line style="stroke:#181818;stroke-width:1.0;" x1="314" x2="654" y1="577.5859" y2="577.5859"/><text fill="#000000" font-family="sans-serif" font-size="13" lengthAdjust="spacing" textLength="124" x="326" y="572.52">ShowWindow(hwnd)</text><polygon fill="#181818" points="320,605.7188,310,609.7188,320,613.7188,316,609.7188" style="stroke:#181818;stroke-width:1.0;"/><line style="stroke:#181818;stroke-width:1.0;" x1="314" x2="654" y1="609.7188" y2="609.7188"/><text fill="#000000" font-family="sans-serif" font-size="13" lengthAdjust="spacing" textLength="322" x="326" y="604.6528">SetThreadExecutionState(ES_DISPLAY_REQUIRED)</text><path d="M660,590.5859 L660,615.5859 L886,615.5859 L886,600.5859 L876,590.5859 L660,590.5859 " fill="#FEFFDD" style="stroke:#181818;stroke-width:0.5;"/><path d="M876,590.5859 L876,600.5859 L886,600.5859 L876,590.5859 " fill="#FEFFDD" style="stroke:#181818;stroke-width:0.5;"/><text fill="#000000" font-family="sans-serif" font-size="13" lengthAdjust="spacing" textLength="205" x="666" y="607.6528">Prevents monitor from sleeping.</text><path d="M282,627.7188 L359,627.7188 L359,634.8516 L349,644.8516 L282,644.8516 L282,627.7188 " fill="#EEEEEE" style="stroke:#000000;stroke-width:1.5;"/><rect fill="none" height="162.7969" style="stroke:#000000;stroke-width:1.5;" width="623" x="282" y="627.7188"/><text fill="#000000" font-family="sans-serif" font-size="13" font-weight="bold" lengthAdjust="spacing" textLength="32" x="297" y="640.7856">loop</text><text fill="#000000" font-family="sans-serif" font-size="11" font-weight="bold" lengthAdjust="spacing" textLength="102" x="374" y="639.9292">[Message Loop]</text><polygon fill="#181818" points="320,661.9844,310,665.9844,320,669.9844,316,665.9844" style="stroke:#181818;stroke-width:1.0;"/><line style="stroke:#181818;stroke-width:1.0;" x1="314" x2="654" y1="665.9844" y2="665.9844"/><text fill="#000000" font-family="sans-serif" font-size="13" lengthAdjust="spacing" textLength="90" x="326" y="660.9185">GetMessage()</text><polygon fill="#181818" points="643,691.1172,653,695.1172,643,699.1172,647,695.1172" style="stroke:#181818;stroke-width:1.0;"/><line style="stroke:#181818;stroke-width:1.0;stroke-dasharray:2.0,2.0;" x1="309" x2="649" y1="695.1172" y2="695.1172"/><text fill="#000000" font-family="sans-serif" font-size="13" lengthAdjust="spacing" textLength="126" x="316" y="690.0513">(waits for message)</text><polygon fill="#181818" points="320,720.25,310,724.25,320,728.25,316,724.25" style="stroke:#181818;stroke-width:1.0;"/><line style="stroke:#181818;stroke-width:1.0;" x1="314" x2="654" y1="724.25" y2="724.25"/><text fill="#000000" font-family="sans-serif" font-size="13" lengthAdjust="spacing" textLength="126" x="326" y="719.1841">TranslateMessage()</text><polygon fill="#181818" points="320,749.3828,310,753.3828,320,757.3828,316,753.3828" style="stroke:#181818;stroke-width:1.0;"/><line style="stroke:#181818;stroke-width:1.0;" x1="314" x2="654" y1="753.3828" y2="753.3828"/><text fill="#000000" font-family="sans-serif" font-size="13" lengthAdjust="spacing" textLength="123" x="326" y="748.3169">DispatchMessage()</text><polygon fill="#181818" points="840,778.5156,850,782.5156,840,786.5156,844,782.5156" style="stroke:#181818;stroke-width:1.0;"/><line style="stroke:#181818;stroke-width:1.0;" x1="309" x2="846" y1="782.5156" y2="782.5156"/><text fill="#000000" font-family="sans-serif" font-size="13" lengthAdjust="spacing" textLength="181" x="316" y="777.4497">Calls WndProc with message</text><!--SRC=[TLF1Zjem4BtxAqPxIWxGEuTAA4Gj4WYQGAkghIBN6H9BnaxjWUp-VMsIx9AmUxJdZUUzDyyaII7amYBgsKPMDS4CbasZfE0aZOQSkALB0pd-kw0Mo1WNP2mS7LhM-9eKik6Qu6cNFm5tiCl7rp-atdAfe_XMxKyJY2xtreW1qft6aCHePnH-vRfKQ7la-9Anm0bcdps51QJFA2w4hjTsauPev_YCy6iskwBzQnp-ORiyTFIq5f1mfHoW9li2ZP6Q6Ejh8zYUMuU9EP_zw8tK6CNlmXnwwufkbgINucJDkU2sSXxFkF9U3qJWf7W5qa5ZqVdn3E3kmI1egPGHlU8eXa-m9EAYVhrvxCYH-cf2LWtMZKsB6Ufof35qPbX9HsWJnPrBdwDMn4mRGh31naKOL9eMRkL0MXXzajN5OlbRjvBgOOTXILGZdD4vNY7KtT0vczgUUQEiTk0kGdZib4zYaHDsKpsT-NmU3ozqWu9ONVhiR8iaIvU7T1XvYwky-kxNN0tStbmwoBCtPhqw5DlTCK-tk-zfSLXlqonc9JxqVyIzxKpfD49KjxgCfqBoshITZ0_gdapjnPPTVFq7zF-FC4hpOhNEzvlbpo9BlntNMReQRsHlyUfZu-1ij0p_CqGDd49ifAwyuSgO1hRz7ZR-y9YNBqWzu9Qc8FDUPzHowGUS_EEzkUzaxc2vTifJldzfWbb9rt0IzNJOtJQxRpXiwXQfOQ4Xh_y1]--></g></svg>